<svg width="95" height="144" viewBox="0 0 95 144" fill="none" xmlns="http://www.w3.org/2000/svg">
<path d="M4.075 126.275C4.075 121.05 7.9 117.35 12.775 117.35C16.55 117.35 19.55 119.25 20.85 122.625H18.125C17.175 120.525 15.325 119.35 12.775 119.35C9.125 119.35 6.4 122 6.4 126.275C6.4 130.525 9.125 133.175 12.775 133.175C15.325 133.175 17.175 132 18.125 129.925H20.85C19.55 133.275 16.55 135.15 12.775 135.15C7.9 135.15 4.075 131.5 4.075 126.275ZM24.2365 135V121.3H26.5115V123.525C27.2865 122 28.7615 121.05 30.9365 121.05V123.4H30.3365C28.1615 123.4 26.5115 124.375 26.5115 127.55V135H24.2365ZM34.7377 119.075C33.8627 119.075 33.1877 118.4 33.1877 117.525C33.1877 116.65 33.8627 115.975 34.7377 115.975C35.5627 115.975 36.2377 116.65 36.2377 117.525C36.2377 118.4 35.5627 119.075 34.7377 119.075ZM33.5627 135V121.3H35.8377V135H33.5627ZM38.865 128.125C38.865 123.825 41.64 121.075 45.54 121.075C48.94 121.075 51.165 122.825 51.865 125.7H49.415C48.94 124.05 47.565 123 45.54 123C43.04 123 41.19 124.775 41.19 128.125C41.19 131.525 43.04 133.3 45.54 133.3C47.565 133.3 48.915 132.325 49.415 130.6H51.865C51.165 133.325 48.94 135.225 45.54 135.225C41.64 135.225 38.865 132.475 38.865 128.125ZM54.9006 135V116.5H57.1756V127.375L62.4506 121.3H65.6256L59.1756 128.125L65.6506 135H62.5506L57.1756 128.95V135H54.9006ZM79.9918 130.775C79.2918 133.275 77.0918 135.225 73.6918 135.225C69.7918 135.225 66.9168 132.475 66.9168 128.125C66.9168 123.8 69.6918 121.075 73.6918 121.075C77.6668 121.075 80.2668 123.875 80.2668 127.625C80.2668 128.125 80.2418 128.525 80.1918 129H69.2418C69.4168 131.775 71.3668 133.3 73.6918 133.3C75.7418 133.3 77.0418 132.25 77.5418 130.775H79.9918ZM73.5918 123C71.3668 123 69.5168 124.475 69.2668 127.15H77.9168C77.9418 124.475 75.9418 123 73.5918 123ZM83.7697 131.25V123.175H81.9947V121.3H83.7697V117.85H86.0447V121.3H89.6197V123.175H86.0447V131.25C86.0447 132.6 86.5447 133.075 87.9447 133.075H89.6197V135H87.5697C85.1447 135 83.7697 134 83.7697 131.25Z" fill="#F4F5F7"/>
<ellipse cx="46.5" cy="45" rx="46.5" ry="45" fill="#BFE804"/>
<path d="M61.1648 29.13L59.5816 27.9237V27.9237L61.1648 29.13ZM47.1226 21.0228L45.2863 20.2549V20.2549L47.1226 21.0228ZM37.7211 45.5596C36.7692 45.01 35.5519 45.3361 35.0022 46.2881C34.4526 47.2401 34.7788 48.4574 35.7308 49.007L36.7259 47.2833L37.7211 45.5596ZM42.6256 52.9878C43.5776 53.5374 44.7949 53.2112 45.3445 52.2592C45.8941 51.3072 45.568 50.09 44.616 49.5403L43.6208 51.264L42.6256 52.9878ZM22 64.8289L20.2763 63.8337C19.7267 64.7857 20.0528 66.0029 21.0048 66.5526L22 64.8289ZM32.8756 61.9148L31.8804 63.6385L32.8756 61.9148ZM35.7897 72.7903L34.7945 74.5141C35.2517 74.778 35.7949 74.8495 36.3048 74.7129C36.8147 74.5763 37.2495 74.2427 37.5134 73.7855L35.7897 72.7903ZM61.1648 29.13L59.5816 27.9237L33.5905 62.0348L35.1736 63.2411L36.7568 64.4474L62.7479 30.3363L61.1648 29.13ZM30.5771 60.5873L32.4133 61.3552L48.9589 21.7907L47.1226 21.0228L45.2863 20.2549L28.7408 59.8194L30.5771 60.5873ZM36.7259 47.2833L35.7308 49.007L42.6256 52.9878L43.6208 51.264L44.616 49.5403L37.7211 45.5596L36.7259 47.2833ZM58.7502 17.0977L57.755 18.8214C60.9827 20.6849 61.8404 24.9592 59.5816 27.9237L61.1648 29.13L62.7479 30.3363C66.461 25.4632 65.051 18.4372 59.7454 15.374L58.7502 17.0977ZM58.7502 17.0977L59.7454 15.374C54.4397 12.3108 47.65 14.6027 45.2863 20.2549L47.1226 21.0228L48.9589 21.7907C50.3968 18.3522 54.5273 16.9579 57.755 18.8214L58.7502 17.0977ZM22 64.8289L23.7237 65.824C25.3726 62.9681 29.0245 61.9896 31.8804 63.6385L32.8756 61.9148L33.8708 60.191C29.1109 57.4429 23.0244 59.0738 20.2763 63.8337L22 64.8289ZM32.8756 61.9148L31.8804 63.6385C34.7363 65.2873 35.7149 68.9392 34.066 71.7952L35.7897 72.7903L37.5134 73.7855C40.2615 69.0256 38.6307 62.9392 33.8708 60.191L32.8756 61.9148ZM35.7897 72.7903L36.7849 71.0666L22.9952 63.1051L22 64.8289L21.0048 66.5526L34.7945 74.5141L35.7897 72.7903ZM72.4227 60.2224H70.4324C70.4324 63.5202 67.759 66.1935 64.4613 66.1935V68.1839V70.1743C69.9575 70.1743 74.4131 65.7187 74.4131 60.2224H72.4227ZM64.4613 68.1839V66.1935C61.1635 66.1935 58.4901 63.5202 58.4901 60.2224H56.4998H54.5094C54.5094 65.7187 58.965 70.1743 64.4613 70.1743V68.1839ZM56.4998 60.2224H58.4901C58.4901 56.9247 61.1635 54.2513 64.4613 54.2513V52.2609V50.2706C58.965 50.2706 54.5094 54.7262 54.5094 60.2224H56.4998ZM64.4613 52.2609V54.2513C67.759 54.2513 70.4324 56.9247 70.4324 60.2224H72.4227H74.4131C74.4131 54.7262 69.9575 50.2706 64.4613 50.2706V52.2609Z" fill="#F2F2F2"/>
</svg>
