<svg width="93" height="144" viewBox="0 0 93 144" fill="none" xmlns="http://www.w3.org/2000/svg">
<path d="M37.85 122.625H35.125C34.175 120.6 32.275 119.425 29.825 119.425C26.15 119.425 23.4 122.075 23.4 126.275C23.4 130.45 26.15 133.1 29.825 133.1C33.25 133.1 35.6 130.9 35.95 127.45H29V125.6H38.375V127.35C37.975 131.675 34.55 135.15 29.825 135.15C24.925 135.15 21.075 131.5 21.075 126.275C21.075 121.05 24.925 117.375 29.825 117.375C33.5 117.375 36.55 119.275 37.85 122.625ZM47.358 135.225C43.483 135.225 40.533 132.475 40.533 128.125C40.533 123.8 43.583 121.075 47.458 121.075C51.358 121.075 54.383 123.8 54.383 128.125C54.383 132.475 51.258 135.225 47.358 135.225ZM47.358 133.225C49.733 133.225 52.058 131.6 52.058 128.125C52.058 124.675 49.783 123.05 47.433 123.05C45.033 123.05 42.858 124.675 42.858 128.125C42.858 131.6 44.983 133.225 47.358 133.225ZM57.3742 135V116.5H59.6492V135H57.3742ZM63.9516 135V123.175H62.1766V121.3H63.9516V120.325C63.9516 117.275 65.4516 115.9 68.9516 115.9V117.8C66.9016 117.8 66.2266 118.55 66.2266 120.325V121.3H69.1016V123.175H66.2266V135H63.9516Z" fill="#F4F5F7"/>
<ellipse cx="46.5" cy="45" rx="46.5" ry="45" fill="#BFE804"/>
<path d="M62 35.5C62 44.0604 55.0604 51 46.5 51C37.9396 51 31 44.0604 31 35.5C31 26.9396 37.9396 20 46.5 20C55.0604 20 62 26.9396 62 35.5Z" stroke="#F2F2F2" stroke-width="3.57692" stroke-linecap="round" stroke-linejoin="round"/>
<path d="M36.9615 55.7692C36.9615 55.7692 40.5385 58.1538 46.5 58.1538C52.4615 58.1538 56.0385 55.7692 56.0385 55.7692C56.0385 55.7692 46.5 64.1154 46.4996 70.0769C46.5 64.1154 36.9615 55.7692 36.9615 55.7692Z" stroke="#F2F2F2" stroke-width="3.57692" stroke-linecap="round" stroke-linejoin="round"/>
</svg>
