<svg width="93" height="144" viewBox="0 0 93 144" fill="none" xmlns="http://www.w3.org/2000/svg">
<ellipse cx="46.5" cy="45" rx="46.5" ry="45" fill="#BFE804"/>
<path d="M46.9999 45.0004C51.6302 45.0004 55.9747 46.2242 59.7276 48.3661M46.9999 45.0004C44.6848 49.0102 41.4528 52.1608 37.7216 54.34M46.9999 45.0004C44.6848 40.9905 43.5724 36.6162 43.5508 32.2953M59.7276 48.3661C59.2466 49.4006 58.7158 50.4227 58.1345 51.4296C57.5534 52.4361 56.9338 53.4065 56.2786 54.3401C51.0247 61.8257 43.4833 66.9397 35.1682 69.2763M59.7276 48.3661C64.1214 50.8738 67.7042 54.6399 69.985 59.1736M37.7216 54.34C37.0662 53.4063 36.4465 52.4357 35.8653 51.4289C30.625 42.3526 29.4929 32.0317 31.8919 22.6194M37.7216 54.34C33.3525 56.8917 28.299 58.1116 23.2317 57.8199M43.5508 32.2953C43.5281 27.7326 44.7217 23.2295 46.9998 19.2777C47.247 18.8488 47.5071 18.4263 47.7797 18.011M43.5508 32.2953C44.6871 32.1947 45.8375 32.1432 46.9999 32.1432C57.4795 32.1432 66.983 36.3225 73.9345 43.1052M31.8919 22.6194C24.7167 27.4725 20 35.6854 20 45C20 49.6396 21.1703 54.006 23.2317 57.8199M31.8919 22.6194C36.2035 19.7031 41.4029 18 47 18C47.2608 18 47.5207 18.0037 47.7797 18.011M47.7797 18.011C61.6982 18.4057 72.9798 29.3339 73.9345 43.1052M73.9345 43.1052C73.9779 43.7312 74 44.363 74 45C74 50.1985 72.5308 55.0539 69.985 59.1736M69.985 59.1736C65.2284 66.871 56.7132 72 47 72C42.7562 72 38.741 71.0209 35.1682 69.2763M35.1682 69.2763C30.093 66.7981 25.9101 62.7752 23.2317 57.8199" stroke="#F2F2F2" stroke-width="3.85714" stroke-linecap="round"/>
<path d="M15.35 117.55H17.625V135H15.35L6.2 121.125V135H3.925V117.55H6.2L15.35 131.4V117.55ZM33.7281 130.775C33.0281 133.275 30.8281 135.225 27.4281 135.225C23.5281 135.225 20.6531 132.475 20.6531 128.125C20.6531 123.8 23.4281 121.075 27.4281 121.075C31.4031 121.075 34.0031 123.875 34.0031 127.625C34.0031 128.125 33.9781 128.525 33.9281 129H22.9781C23.1531 131.775 25.1031 133.3 27.4281 133.3C29.4781 133.3 30.7781 132.25 31.2781 130.775H33.7281ZM27.3281 123C25.1031 123 23.2531 124.475 23.0031 127.15H31.6531C31.6781 124.475 29.6781 123 27.3281 123ZM37.5061 131.25V123.175H35.7311V121.3H37.5061V117.85H39.7811V121.3H43.3561V123.175H39.7811V131.25C39.7811 132.6 40.2811 133.075 41.6811 133.075H43.3561V135H41.3061C38.8811 135 37.5061 134 37.5061 131.25ZM48.3875 123.85C49.2625 122.325 51.0875 121.075 53.5125 121.075C57.2125 121.075 60.0125 123.825 60.0125 128.1C60.0125 132.35 57.1875 135.225 53.5125 135.225C51.0125 135.225 49.2375 133.975 48.3875 132.475V135H46.1125V116.5H48.3875V123.85ZM57.6875 128.1C57.6875 124.875 55.5625 123.05 53.0375 123.05C50.5625 123.05 48.3875 124.95 48.3875 128.125C48.3875 131.35 50.5625 133.225 53.0375 133.225C55.5625 133.225 57.6875 131.325 57.6875 128.1ZM62.157 128.1C62.157 123.825 64.982 121.075 68.657 121.075C71.207 121.075 72.957 122.375 73.757 123.8V121.3H76.057V135H73.757V132.45C72.932 133.925 71.157 135.225 68.632 135.225C64.982 135.225 62.157 132.35 62.157 128.1ZM73.757 128.125C73.757 124.95 71.607 123.05 69.107 123.05C66.607 123.05 64.482 124.875 64.482 128.1C64.482 131.325 66.607 133.225 69.107 133.225C71.607 133.225 73.757 131.35 73.757 128.125ZM79.9016 135V116.5H82.1766V135H79.9016ZM86.0539 135V116.5H88.3289V135H86.0539Z" fill="#F4F5F7"/>
</svg>
