<svg width="61" height="69" viewBox="0 0 61 69" fill="none" xmlns="http://www.w3.org/2000/svg">
<path d="M30.053 38.656C39.437 38.656 47.071 29.468 47.071 18.173C47.071 7.473 40.073 0 30.053 0C20.033 0 13.035 7.473 13.035 18.173C13.035 29.468 20.669 38.656 30.053 38.656ZM30.053 4C37.839 4 43.071 9.695 43.071 18.173C43.071 27.262 37.231 34.656 30.053 34.656C22.875 34.656 17.035 27.261 17.035 18.173C17.035 9.695 22.267 4 30.053 4ZM31.897 42.656H28.209C11.336 42.656 0 52.347 0 66.773C0 67.877 0.896 68.773 2 68.773C3.104 68.773 4 67.877 4 66.773C4 51.925 17.041 46.656 28.209 46.656H31.897C43.066 46.656 56.108 51.926 56.108 66.773C56.108 67.877 57.004 68.773 58.108 68.773C59.212 68.773 60.108 67.877 60.108 66.773C60.108 52.347 48.771 42.656 31.897 42.656Z" fill="black"/>
</svg>
