<svg width="93" height="144" viewBox="0 0 93 144" fill="none" xmlns="http://www.w3.org/2000/svg">
<ellipse cx="46.5" cy="45" rx="46.5" ry="45" fill="#BFE804"/>
<path d="M53.5103 38.2417L40.2413 51.5107M45.5489 36.9148L54.8372 46.2031M38.9144 43.5493L48.2027 52.8376M52.4582 19.319C45.9502 20.2247 38.5358 23.19 31.8629 29.8629C25.1898 36.5359 22.2246 43.9506 21.319 50.4586M52.4582 19.319C60.5912 18.1872 67.3084 20.272 69.3932 22.3568C71.4781 24.4418 73.5631 31.1597 72.4307 39.2935M52.4582 19.319C54.0277 29.5991 62.151 37.723 72.4307 39.2935M72.4307 39.2935C71.5248 45.801 68.5595 53.2148 61.8871 59.8871C55.2146 66.5596 47.8007 69.5249 41.293 70.4308M41.293 70.4308C33.1595 71.563 26.4417 69.4781 24.3568 67.3932C22.272 65.3084 20.1873 58.5914 21.319 50.4586M41.293 70.4308C39.7225 60.1513 31.5987 52.0282 21.319 50.4586" stroke="#F2F2F2" stroke-width="3.98069" stroke-linecap="round" stroke-linejoin="round"/>
<path d="M7.925 117.575H13.55C17.65 117.575 19.6 119.85 19.6 122.7C19.6 124.925 18.375 127.05 15.45 127.7L19.825 135H17.1L12.95 127.875H10.2V135H7.925V117.575ZM17.25 122.7C17.25 120.725 16.15 119.45 13.55 119.45H10.2V126.05H13.55C16.125 126.05 17.25 124.65 17.25 122.7ZM25.26 121.3V129.025C25.26 131.8 26.785 133.225 29.085 133.225C31.435 133.225 33.01 131.775 33.01 128.825V121.3H35.285V135H33.01V132.975C32.135 134.4 30.46 135.2 28.635 135.2C25.485 135.2 23.01 133.25 23.01 129.325V121.3H25.26ZM44.7762 121.075C47.2762 121.075 49.0762 122.325 49.8762 123.8V121.3H52.1762V135.3C52.1762 139.075 49.6512 141.75 45.6262 141.75C42.0262 141.75 39.4512 139.925 39.0012 137H41.2512C41.7512 138.625 43.3762 139.775 45.6262 139.775C48.0512 139.775 49.8762 138.225 49.8762 135.3V132.425C49.0512 133.9 47.2762 135.225 44.7762 135.225C41.1012 135.225 38.2762 132.35 38.2762 128.1C38.2762 123.825 41.1012 121.075 44.7762 121.075ZM49.8762 128.125C49.8762 124.95 47.7262 123.05 45.2262 123.05C42.7262 123.05 40.6012 124.875 40.6012 128.1C40.6012 131.325 42.7262 133.225 45.2262 133.225C47.7262 133.225 49.8762 131.35 49.8762 128.125ZM58.2957 123.85C59.1707 122.325 60.9957 121.075 63.4207 121.075C67.1207 121.075 69.9207 123.825 69.9207 128.1C69.9207 132.35 67.0957 135.225 63.4207 135.225C60.9207 135.225 59.1457 133.975 58.2957 132.475V135H56.0207V116.5H58.2957V123.85ZM67.5957 128.1C67.5957 124.875 65.4707 123.05 62.9457 123.05C60.4707 123.05 58.2957 124.95 58.2957 128.125C58.2957 131.35 60.4707 133.225 62.9457 133.225C65.4707 133.225 67.5957 131.325 67.5957 128.1ZM78.1152 132.4L82.3652 121.3H84.7152L76.4652 141.45H74.1152L76.8152 134.85L71.2902 121.3H73.8152L78.1152 132.4Z" fill="#F4F5F7"/>
</svg>
