<svg width="84" height="89" viewBox="0 0 84 89" fill="none" xmlns="http://www.w3.org/2000/svg">
<path d="M35.7622 1.00136e-05C23.8752 1.00136e-05 14.2072 9.66411 14.2072 21.555L14.2111 27.2347H2.78911C2.05083 27.2308 1.33991 27.5238 0.81641 28.0472C0.29297 28.5706 0 29.2816 0 30.0238V71.3208C0 80.9927 7.9023 88.8908 17.57 88.8908H65.918C75.5899 88.8908 83.496 80.9924 83.496 71.3208L83.4999 30.0238C83.4999 29.2855 83.2109 28.5785 82.6913 28.055C82.1718 27.5316 81.4647 27.2347 80.7265 27.2347H69.2855V21.555C69.2855 9.664 59.6449 0 47.7585 0L35.7622 1.00136e-05ZM35.7622 5.55861H47.7582C56.6644 5.55861 63.7502 12.6445 63.7502 21.5506V27.2342H19.7702V21.5545C19.7702 12.6443 26.86 5.56251 35.7622 5.56251V5.55861ZM5.5632 32.7886H14.2116V45.0696C14.2116 45.8079 14.5085 46.5149 15.0319 47.0305C15.5554 47.55 16.2624 47.8391 17.0007 47.8391C18.528 47.8352 19.7663 46.6008 19.7702 45.0696V32.7886H63.7502V45.0696C63.758 46.5969 64.9924 47.8313 66.5197 47.8391C68.0431 47.8313 69.2775 46.5969 69.2853 45.0696V32.7886H77.9376V71.3156C77.9376 77.9875 72.5899 83.3276 65.9216 83.3276H17.5736C10.9056 83.3276 5.56161 77.9878 5.56161 71.3156L5.5632 32.7886Z" fill="black"/>
</svg>
