<svg width="93" height="144" viewBox="0 0 93 144" fill="none" xmlns="http://www.w3.org/2000/svg">
<path d="M10.45 135.175C6.95 135.175 4.475 133.225 4.425 130.35H6.85C7 131.8 8.025 133.25 10.45 133.25C12.65 133.25 13.95 132 13.95 130.35C13.95 125.65 4.525 128.65 4.525 122.175C4.525 119.3 6.85 117.35 10.3 117.35C13.625 117.35 15.8 119.175 16.075 121.825H13.575C13.425 120.65 12.325 119.325 10.2 119.3C8.325 119.25 6.85 120.225 6.85 122.1C6.85 126.6 16.25 123.8 16.25 130.25C16.25 132.725 14.225 135.175 10.45 135.175ZM25.5729 135.225C21.6979 135.225 18.7479 132.475 18.7479 128.125C18.7479 123.8 21.7979 121.075 25.6729 121.075C29.5729 121.075 32.5979 123.8 32.5979 128.125C32.5979 132.475 29.4729 135.225 25.5729 135.225ZM25.5729 133.225C27.9479 133.225 30.2729 131.6 30.2729 128.125C30.2729 124.675 27.9979 123.05 25.6479 123.05C23.2479 123.05 21.0729 124.675 21.0729 128.125C21.0729 131.6 23.1979 133.225 25.5729 133.225ZM34.7391 128.125C34.7391 123.825 37.5141 121.075 41.4141 121.075C44.8141 121.075 47.0391 122.825 47.7391 125.7H45.2891C44.8141 124.05 43.4391 123 41.4141 123C38.9141 123 37.0641 124.775 37.0641 128.125C37.0641 131.525 38.9141 133.3 41.4141 133.3C43.4391 133.3 44.7891 132.325 45.2891 130.6H47.7391C47.0391 133.325 44.8141 135.225 41.4141 135.225C37.5141 135.225 34.7391 132.475 34.7391 128.125ZM49.9246 128.125C49.9246 123.825 52.6996 121.075 56.5996 121.075C59.9996 121.075 62.2246 122.825 62.9246 125.7H60.4746C59.9996 124.05 58.6246 123 56.5996 123C54.0996 123 52.2496 124.775 52.2496 128.125C52.2496 131.525 54.0996 133.3 56.5996 133.3C58.6246 133.3 59.9746 132.325 60.4746 130.6H62.9246C62.2246 133.325 59.9996 135.225 56.5996 135.225C52.6996 135.225 49.9246 132.475 49.9246 128.125ZM78.1852 130.775C77.4852 133.275 75.2852 135.225 71.8852 135.225C67.9852 135.225 65.1102 132.475 65.1102 128.125C65.1102 123.8 67.8852 121.075 71.8852 121.075C75.8602 121.075 78.4602 123.875 78.4602 127.625C78.4602 128.125 78.4352 128.525 78.3852 129H67.4352C67.6102 131.775 69.5602 133.3 71.8852 133.3C73.9352 133.3 75.2352 132.25 75.7352 130.775H78.1852ZM71.7852 123C69.5602 123 67.7102 124.475 67.4602 127.15H76.1102C76.1352 124.475 74.1352 123 71.7852 123ZM81.4631 135V121.3H83.7381V123.525C84.5131 122 85.9881 121.05 88.1631 121.05V123.4H87.5631C85.3881 123.4 83.7381 124.375 83.7381 127.55V135H81.4631Z" fill="#F4F5F7"/>
<ellipse cx="46.5" cy="45" rx="46.5" ry="45" fill="#BFE804"/>
<path d="M72.6011 54.2769L74.8272 53.1234C74.3587 52.2193 73.3899 51.6883 72.3756 51.7799L72.6011 54.2769ZM53.6994 68.9002L51.2656 68.2981C50.9832 69.4395 51.5319 70.6237 52.5852 71.1463L53.6994 68.9002ZM19.1785 32.545L17.009 31.2883V31.2883L19.1785 32.545ZM18.6556 54.9174L16.4328 56.0773L18.6556 54.9174ZM73.6105 56.2249L75.7588 57.5176L73.6105 56.2249ZM41.9256 26.9402L40.5979 29.067L53.3152 37.006L54.6429 34.8792L55.9706 32.7523L43.2533 24.8134L41.9256 26.9402ZM54.6429 34.8792L52.2978 33.9923L47.4402 46.8379L49.7853 47.7247L52.1305 48.6115L56.9881 35.766L54.6429 34.8792ZM49.7853 47.7247V45.2175H34.0658V47.7247V50.2319H49.7853V47.7247ZM34.0658 47.7247L36.4109 46.8379L31.5533 33.9923L29.2082 34.8792L26.863 35.766L31.7206 48.6115L34.0658 47.7247ZM29.2082 34.8792L30.5359 37.006L43.2533 29.067L41.9256 26.9402L40.5979 24.8134L27.8805 32.7523L29.2082 34.8792ZM72.6011 54.2769L72.3756 51.7799L56.7422 53.1917L56.9677 55.6888L57.1932 58.1858L72.8266 56.774L72.6011 54.2769ZM56.9677 55.6888L54.5338 55.0867L51.2656 68.2981L53.6994 68.9002L56.1333 69.5023L59.4016 56.2909L56.9677 55.6888ZM41.9256 26.9402H44.4328V18.3231H41.9256H39.4183V26.9402H41.9256ZM54.6429 34.8792L55.2113 37.3211L65.8935 34.8348L65.3251 32.3929L64.7567 29.9509L54.0746 32.4372L54.6429 34.8792ZM49.7853 47.7247L47.9234 49.4038L55.1058 57.3679L56.9677 55.6888L58.8296 54.0096L51.6472 46.0456L49.7853 47.7247ZM34.0658 47.7247L32.1671 46.0872L25.2988 54.0513L27.1974 55.6888L29.0961 57.3262L35.9645 49.3621L34.0658 47.7247ZM68.1418 26.0881L65.8526 25.0654L63.0359 31.3702L65.3251 32.3929L67.6143 33.4156L70.431 27.1108L68.1418 26.0881ZM65.3251 32.3929L64.2539 34.6597L74.8969 39.689L75.9681 37.4221L77.0393 35.1552L66.3963 30.126L65.3251 32.3929ZM46.5 18V20.5072C59.7086 20.5072 70.4748 28.2031 73.574 38.1668L75.9681 37.4221L78.3622 36.6774C74.5033 24.2716 61.5196 15.4928 46.5 15.4928V18ZM75.9681 37.4221L73.574 38.1668C74.1737 40.0946 74.4928 42.1179 74.4928 44.2063H77H79.5072C79.5072 41.6024 79.1087 39.0773 78.3622 36.6774L75.9681 37.4221ZM29.2082 34.8792L29.7765 32.4372L19.7468 30.103L19.1785 32.545L18.6102 34.9869L28.6399 37.3211L29.2082 34.8792ZM16 44.2063H18.5072C18.5072 40.4836 19.5217 36.9545 21.348 33.8017L19.1785 32.545L17.009 31.2883C14.7665 35.1596 13.4928 39.5501 13.4928 44.2063H16ZM19.1785 32.545L21.348 33.8017C25.8459 26.0368 35.326 20.5072 46.5 20.5072V18V15.4928C33.7363 15.4928 22.4991 21.8105 17.009 31.2883L19.1785 32.545ZM18.6556 54.9174L18.4301 57.4144L26.9719 58.1858L27.1974 55.6888L27.4229 53.1917L18.8811 52.4203L18.6556 54.9174ZM18.6556 54.9174L20.8784 53.7574C19.3493 50.8274 18.5072 47.5983 18.5072 44.2063H16H13.4928C13.4928 48.4459 14.5489 52.4673 16.4328 56.0773L18.6556 54.9174ZM46.5 70.4126V67.9054C40.7524 67.9054 35.4324 66.4381 31.0118 63.9437L29.7797 66.1273L28.5476 68.3109C33.7301 71.2352 39.9004 72.9198 46.5 72.9198V70.4126ZM29.7797 66.1273L31.0118 63.9437C26.5469 61.4244 23.0269 57.8746 20.8784 53.7574L18.6556 54.9174L16.4328 56.0773C19.0723 61.1351 23.3214 65.362 28.5476 68.3109L29.7797 66.1273ZM27.1974 55.6888L24.7636 56.2909L27.3459 66.7294L29.7797 66.1273L32.2136 65.5252L29.6313 55.0867L27.1974 55.6888ZM73.6105 56.2249L75.8366 55.0714L74.8272 53.1234L72.6011 54.2769L70.375 55.4305L71.3844 57.3784L73.6105 56.2249ZM77 44.2063H74.4928C74.4928 48.0552 73.4082 51.6981 71.4622 54.9323L73.6105 56.2249L75.7588 57.5176C78.145 53.5518 79.5072 49.0216 79.5072 44.2063H77ZM73.6105 56.2249L71.4622 54.9323C68.0052 60.6777 61.8034 65.1579 54.1897 66.9987L54.7789 69.4357L55.368 71.8727C64.1465 69.7504 71.5399 64.5292 75.7588 57.5176L73.6105 56.2249ZM54.7789 69.4357L54.1897 66.9987C51.75 67.5885 49.1709 67.9054 46.5 67.9054V70.4126V72.9198C49.5679 72.9198 52.5425 72.5558 55.368 71.8727L54.7789 69.4357ZM53.6994 68.9002L52.5852 71.1463L53.6647 71.6817L54.7789 69.4357L55.893 67.1896L54.8136 66.6542L53.6994 68.9002Z" fill="#F2F2F2"/>
</svg>
