<svg width="93" height="144" viewBox="0 0 93 144" fill="none" xmlns="http://www.w3.org/2000/svg">
<path d="M6.85 119.425V117.575H18.65V119.425H13.9V135H11.625V119.425H6.85ZM33.6754 130.775C32.9754 133.275 30.7754 135.225 27.3754 135.225C23.4754 135.225 20.6004 132.475 20.6004 128.125C20.6004 123.8 23.3754 121.075 27.3754 121.075C31.3504 121.075 33.9504 123.875 33.9504 127.625C33.9504 128.125 33.9254 128.525 33.8754 129H22.9254C23.1004 131.775 25.0504 133.3 27.3754 133.3C29.4254 133.3 30.7254 132.25 31.2254 130.775H33.6754ZM27.2754 123C25.0504 123 23.2004 124.475 22.9504 127.15H31.6004C31.6254 124.475 29.6254 123 27.2754 123ZM36.9533 135V121.3H39.2283V123.25C40.1283 121.825 41.7783 121.05 43.6283 121.05C46.8033 121.05 49.2283 123 49.2283 126.925V135H46.9783V127.25C46.9783 124.45 45.4533 123.025 43.1533 123.025C40.8283 123.025 39.2283 124.475 39.2283 127.425V135H36.9533ZM52.9445 135V121.3H55.2195V123.25C56.1195 121.825 57.7695 121.05 59.6195 121.05C62.7945 121.05 65.2195 123 65.2195 126.925V135H62.9695V127.25C62.9695 124.45 61.4445 123.025 59.1445 123.025C56.8195 123.025 55.2195 124.475 55.2195 127.425V135H52.9445ZM70.1107 119.075C69.2357 119.075 68.5607 118.4 68.5607 117.525C68.5607 116.65 69.2357 115.975 70.1107 115.975C70.9357 115.975 71.6107 116.65 71.6107 117.525C71.6107 118.4 70.9357 119.075 70.1107 119.075ZM68.9357 135V121.3H71.2107V135H68.9357ZM79.9381 135.225C76.7381 135.225 74.4881 133.475 74.3381 130.975H76.6881C76.8131 132.3 77.9881 133.3 79.9131 133.3C81.7131 133.3 82.7131 132.4 82.7131 131.275C82.7131 128.225 74.6131 130 74.6131 124.9C74.6131 122.8 76.5881 121.075 79.6381 121.075C82.6631 121.075 84.6631 122.7 84.8131 125.375H82.5381C82.4381 124 81.3881 123 79.5631 123C77.8881 123 76.8881 123.8 76.8881 124.9C76.8881 128.15 84.8381 126.375 84.9381 131.275C84.9381 133.525 82.9631 135.225 79.9381 135.225Z" fill="#F4F5F7"/>
<ellipse cx="46.5" cy="45" rx="46.5" ry="45" fill="#BFE804"/>
<path d="M45.7588 19.0078C46.2427 20.6258 46.5 22.3218 46.5 24.0694C46.5 35.2685 35.9339 44.3471 22.9 44.3471C20.866 44.3471 18.8921 44.126 17.0091 43.7103M45.7588 19.0078C46.0052 19.0026 46.2522 19 46.5 19C62.7924 19 76 30.3483 76 44.3471C76 58.3459 62.7924 69.6942 46.5 69.6942C30.2076 69.6942 17 58.3459 17 44.3471C17 44.1342 17.0031 43.9219 17.0091 43.7103M45.7588 19.0078C30.0552 19.3406 17.3964 30.2174 17.0091 43.7103M76 44.9859C74.1142 44.5689 72.1373 44.3471 70.1 44.3471C57.0661 44.3471 46.5 53.4257 46.5 64.6248C46.5 66.3752 46.7581 68.0739 47.2435 69.6942" stroke="#F2F2F2" stroke-width="4.425" stroke-linecap="round" stroke-linejoin="round"/>
</svg>
